<svg xmlns="http://www.w3.org/2000/svg" xmlns:xlink="http://www.w3.org/1999/xlink" width="1200" zoomAndPan="magnify" viewBox="0 0 900 209.999996" height="280" preserveAspectRatio="xMidYMid meet" version="1.0"><defs><g/></defs><path fill="#2e75a9" d="M 224.988281 63.765625 C 212.851562 1.339844 136.785156 0.296875 118.027344 58.652344 C 99.269531 0.300781 23.199219 1.339844 11.0625 63.765625 C 0.0546875 120.402344 118.027344 209.753906 118.027344 209.753906 C 118.027344 209.753906 236 120.402344 224.988281 63.765625 Z M 224.988281 63.765625 " fill-opacity="1" fill-rule="nonzero"/><g fill="#ffffff" fill-opacity="1"><g transform="translate(73.036118, 159.982416)"><g><path d="M 61.71875 -29.921875 C 61.71875 -34.191406 60.53125 -37.585938 58.15625 -40.109375 C 55.789062 -42.640625 51.769531 -44.972656 46.09375 -47.109375 C 40.414062 -49.242188 35.519531 -51.363281 31.40625 -53.46875 C 27.289062 -55.582031 23.757812 -58.003906 20.8125 -60.734375 C 17.875 -63.472656 15.582031 -66.691406 13.9375 -70.390625 C 12.300781 -74.085938 11.484375 -78.488281 11.484375 -83.59375 C 11.484375 -92.394531 14.296875 -99.609375 19.921875 -105.234375 C 25.546875 -110.859375 33.019531 -114.140625 42.34375 -115.078125 L 42.34375 -131.796875 L 54.84375 -131.796875 L 54.84375 -114.84375 C 64.0625 -113.539062 71.273438 -109.695312 76.484375 -103.3125 C 81.691406 -96.9375 84.296875 -88.671875 84.296875 -78.515625 L 61.71875 -78.515625 C 61.71875 -84.765625 60.425781 -89.4375 57.84375 -92.53125 C 55.269531 -95.632812 51.820312 -97.1875 47.5 -97.1875 C 43.226562 -97.1875 39.921875 -95.972656 37.578125 -93.546875 C 35.234375 -91.128906 34.0625 -87.785156 34.0625 -83.515625 C 34.0625 -79.554688 35.207031 -76.378906 37.5 -73.984375 C 39.789062 -71.585938 44.046875 -69.140625 50.265625 -66.640625 C 56.492188 -64.140625 61.613281 -61.78125 65.625 -59.5625 C 69.632812 -57.351562 73.019531 -54.851562 75.78125 -52.0625 C 78.539062 -49.28125 80.648438 -46.101562 82.109375 -42.53125 C 83.566406 -38.96875 84.296875 -34.816406 84.296875 -30.078125 C 84.296875 -21.222656 81.535156 -14.035156 76.015625 -8.515625 C 70.492188 -2.992188 62.890625 0.257812 53.203125 1.25 L 53.203125 16.796875 L 40.78125 16.796875 L 40.78125 1.328125 C 30.101562 0.179688 21.832031 -3.601562 15.96875 -10.03125 C 10.113281 -16.46875 7.1875 -25.023438 7.1875 -35.703125 L 29.765625 -35.703125 C 29.765625 -29.503906 31.234375 -24.75 34.171875 -21.4375 C 37.117188 -18.132812 41.351562 -16.484375 46.875 -16.484375 C 51.457031 -16.484375 55.078125 -17.691406 57.734375 -20.109375 C 60.390625 -22.535156 61.71875 -25.804688 61.71875 -29.921875 Z M 61.71875 -29.921875 "/></g></g></g><g fill="#2e75a9" fill-opacity="1"><g transform="translate(162.914718, 159.982416)"><g><path d="M 74.375 -23.4375 L 33.28125 -23.4375 L 25.46875 0 L 0.546875 0 L 42.890625 -113.75 L 64.609375 -113.75 L 107.1875 0 L 82.265625 0 Z M 39.609375 -42.421875 L 68.046875 -42.421875 L 53.75 -85 Z M 39.609375 -42.421875 "/></g></g></g><g fill="#2e75a9" fill-opacity="1"><g transform="translate(268.64458, 159.982416)"><g><path d="M 74.375 -23.4375 L 33.28125 -23.4375 L 25.46875 0 L 0.546875 0 L 42.890625 -113.75 L 64.609375 -113.75 L 107.1875 0 L 82.265625 0 Z M 39.609375 -42.421875 L 68.046875 -42.421875 L 53.75 -85 Z M 39.609375 -42.421875 "/></g></g></g><g fill="#2e75a9" fill-opacity="1"><g transform="translate(374.374443, 159.982416)"><g><path d="M 61.71875 -29.921875 C 61.71875 -34.191406 60.53125 -37.585938 58.15625 -40.109375 C 55.789062 -42.640625 51.769531 -44.972656 46.09375 -47.109375 C 40.414062 -49.242188 35.519531 -51.363281 31.40625 -53.46875 C 27.289062 -55.582031 23.757812 -58.003906 20.8125 -60.734375 C 17.875 -63.472656 15.582031 -66.691406 13.9375 -70.390625 C 12.300781 -74.085938 11.484375 -78.488281 11.484375 -83.59375 C 11.484375 -92.394531 14.296875 -99.609375 19.921875 -105.234375 C 25.546875 -110.859375 33.019531 -114.140625 42.34375 -115.078125 L 42.34375 -131.796875 L 54.84375 -131.796875 L 54.84375 -114.84375 C 64.0625 -113.539062 71.273438 -109.695312 76.484375 -103.3125 C 81.691406 -96.9375 84.296875 -88.671875 84.296875 -78.515625 L 61.71875 -78.515625 C 61.71875 -84.765625 60.425781 -89.4375 57.84375 -92.53125 C 55.269531 -95.632812 51.820312 -97.1875 47.5 -97.1875 C 43.226562 -97.1875 39.921875 -95.972656 37.578125 -93.546875 C 35.234375 -91.128906 34.0625 -87.785156 34.0625 -83.515625 C 34.0625 -79.554688 35.207031 -76.378906 37.5 -73.984375 C 39.789062 -71.585938 44.046875 -69.140625 50.265625 -66.640625 C 56.492188 -64.140625 61.613281 -61.78125 65.625 -59.5625 C 69.632812 -57.351562 73.019531 -54.851562 75.78125 -52.0625 C 78.539062 -49.28125 80.648438 -46.101562 82.109375 -42.53125 C 83.566406 -38.96875 84.296875 -34.816406 84.296875 -30.078125 C 84.296875 -21.222656 81.535156 -14.035156 76.015625 -8.515625 C 70.492188 -2.992188 62.890625 0.257812 53.203125 1.25 L 53.203125 16.796875 L 40.78125 16.796875 L 40.78125 1.328125 C 30.101562 0.179688 21.832031 -3.601562 15.96875 -10.03125 C 10.113281 -16.46875 7.1875 -25.023438 7.1875 -35.703125 L 29.765625 -35.703125 C 29.765625 -29.503906 31.234375 -24.75 34.171875 -21.4375 C 37.117188 -18.132812 41.351562 -16.484375 46.875 -16.484375 C 51.457031 -16.484375 55.078125 -17.691406 57.734375 -20.109375 C 60.390625 -22.535156 61.71875 -25.804688 61.71875 -29.921875 Z M 61.71875 -29.921875 "/></g></g></g><g fill="#2e75a9" fill-opacity="1"><g transform="translate(464.24586, 159.982416)"><g><path d="M 74.375 -23.4375 L 33.28125 -23.4375 L 25.46875 0 L 0.546875 0 L 42.890625 -113.75 L 64.609375 -113.75 L 107.1875 0 L 82.265625 0 Z M 39.609375 -42.421875 L 68.046875 -42.421875 L 53.75 -85 Z M 39.609375 -42.421875 "/></g></g></g><g fill="#2e75a9" fill-opacity="1"><g transform="translate(569.975735, 159.982416)"><g><path d="M 10.15625 0 L 10.15625 -113.75 L 50 -113.75 C 63.800781 -113.75 74.269531 -111.101562 81.40625 -105.8125 C 88.539062 -100.53125 92.109375 -92.785156 92.109375 -82.578125 C 92.109375 -77.003906 90.675781 -72.09375 87.8125 -67.84375 C 84.945312 -63.601562 80.960938 -60.492188 75.859375 -58.515625 C 81.691406 -57.054688 86.285156 -54.113281 89.640625 -49.6875 C 93.003906 -45.257812 94.6875 -39.84375 94.6875 -33.4375 C 94.6875 -22.5 91.195312 -14.21875 84.21875 -8.59375 C 77.238281 -2.96875 67.289062 -0.101562 54.375 0 Z M 33.59375 -49.53125 L 33.59375 -18.828125 L 53.671875 -18.828125 C 59.191406 -18.828125 63.5 -20.140625 66.59375 -22.765625 C 69.695312 -25.398438 71.25 -29.035156 71.25 -33.671875 C 71.25 -44.085938 65.859375 -49.375 55.078125 -49.53125 Z M 33.59375 -66.09375 L 50.9375 -66.09375 C 62.757812 -66.300781 68.671875 -71.015625 68.671875 -80.234375 C 68.671875 -85.390625 67.171875 -89.097656 64.171875 -91.359375 C 61.179688 -93.628906 56.457031 -94.765625 50 -94.765625 L 33.59375 -94.765625 Z M 33.59375 -66.09375 "/></g></g></g><g fill="#2e75a9" fill-opacity="1"><g transform="translate(670.159064, 159.982416)"><g><path d="M 33.59375 -18.828125 L 83.359375 -18.828125 L 83.359375 0 L 10.15625 0 L 10.15625 -113.75 L 33.59375 -113.75 Z M 33.59375 -18.828125 "/></g></g></g><g fill="#2e75a9" fill-opacity="1"><g transform="translate(754.874561, 159.982416)"><g><path d="M 78.59375 -49.296875 L 33.59375 -49.296875 L 33.59375 -18.828125 L 86.40625 -18.828125 L 86.40625 0 L 10.15625 0 L 10.15625 -113.75 L 86.25 -113.75 L 86.25 -94.765625 L 33.59375 -94.765625 L 33.59375 -67.65625 L 78.59375 -67.65625 Z M 78.59375 -49.296875 "/></g></g></g></svg>