<svg xmlns="http://www.w3.org/2000/svg" xmlns:xlink="http://www.w3.org/1999/xlink" width="80" zoomAndPan="magnify" viewBox="0 0 60 60" height="80" preserveAspectRatio="xMidYMid meet" version="1.0"><defs><clipPath id="b97b29ff33"><path d="M 0 41 L 60 41 L 60 59.136719 L 0 59.136719 Z M 0 41 " clip-rule="nonzero"/></clipPath><clipPath id="034bc110bf"><path d="M 12 0.636719 L 48 0.636719 L 48 44 L 12 44 Z M 12 0.636719 " clip-rule="nonzero"/></clipPath></defs><g clip-path="url(#b97b29ff33)"><path fill="#d32f2f" d="M 6.832031 59.191406 L 53.167969 59.191406 C 56.894531 59.191406 60 56.085938 60 52.359375 L 60 45.527344 C 60 43.167969 58.011719 41.179688 55.652344 41.179688 C 53.292969 41.179688 51.304688 43.167969 51.304688 45.527344 L 51.304688 50.496094 L 8.695312 50.496094 L 8.695312 45.527344 C 8.695312 43.167969 6.707031 41.179688 4.347656 41.179688 C 1.988281 41.179688 0 43.167969 0 45.527344 L 0 52.359375 C 0 56.085938 2.980469 59.191406 6.832031 59.191406 Z M 6.832031 59.191406 " fill-opacity="1" fill-rule="nonzero"/></g><g clip-path="url(#034bc110bf)"><path fill="#d32f2f" d="M 29.9375 0.804688 C 27.578125 0.804688 25.589844 2.792969 25.589844 5.152344 L 25.589844 28.257812 L 20.25 22.917969 C 18.507812 21.179688 15.777344 21.179688 14.160156 22.917969 C 12.421875 24.65625 12.421875 27.390625 14.160156 29.003906 L 26.957031 41.800781 C 27.328125 42.171875 27.824219 42.546875 28.324219 42.667969 C 28.820312 42.917969 29.316406 43.042969 29.9375 43.042969 C 30.558594 43.042969 31.054688 42.917969 31.554688 42.667969 C 32.050781 42.421875 32.546875 42.171875 32.917969 41.800781 L 45.714844 29.003906 C 47.453125 27.265625 47.453125 24.53125 45.714844 22.792969 C 43.976562 21.054688 41.242188 21.054688 39.628906 22.792969 L 34.285156 28.136719 L 34.285156 5.152344 C 34.285156 2.792969 32.296875 0.804688 29.9375 0.804688 Z M 29.9375 0.804688 " fill-opacity="1" fill-rule="nonzero"/></g></svg>