<svg xmlns="http://www.w3.org/2000/svg" xmlns:xlink="http://www.w3.org/1999/xlink" width="80" zoomAndPan="magnify" viewBox="0 0 60 60" height="80" preserveAspectRatio="xMidYMid meet" version="1.0"><defs><clipPath id="93521c2ed6"><path d="M 1.875 0 L 58.125 0 L 58.125 60 L 1.875 60 Z M 1.875 0 " clip-rule="nonzero"/></clipPath></defs><g clip-path="url(#93521c2ed6)"><path fill="#d32f2f" d="M 58.125 30 L 52.5 30 L 52.5 15 L 37.5 0 L 7.5 0 L 7.5 30 L 1.875 30 L 1.875 48.75 L 7.5 48.75 L 7.5 60 L 52.5 60 L 52.5 48.75 L 58.125 48.75 L 58.125 30 " fill-opacity="1" fill-rule="nonzero"/></g><path fill="#ffffff" d="M 9.375 58.125 L 50.625 58.125 L 50.625 48.75 L 9.375 48.75 Z M 37.5 2.652344 L 37.5 15 L 49.847656 15 Z M 35.625 16.875 L 35.625 1.875 L 9.375 1.875 L 9.375 30 L 50.625 30 L 50.625 16.875 Z M 35.6875 39.113281 C 35.6875 37.128906 34.953125 35.742188 33.785156 34.875 C 32.699219 34.058594 31.316406 33.675781 29.179688 33.675781 C 27.898438 33.675781 26.679688 33.757812 25.746094 33.910156 L 25.746094 44.949219 C 26.378906 45.035156 27.3125 45.117188 28.628906 45.117188 C 30.832031 45.117188 32.636719 44.648438 33.816406 43.664062 C 34.902344 42.746094 35.6875 41.261719 35.6875 39.113281 Z M 29.179688 43.132812 C 28.863281 43.132812 28.515625 43.132812 28.296875 43.082031 L 28.296875 35.726562 C 28.515625 35.675781 28.882812 35.625 29.449219 35.625 C 31.632812 35.625 33 36.859375 32.984375 39.195312 C 32.984375 41.878906 31.484375 43.148438 29.179688 43.132812 Z M 19.019531 41.03125 C 20.519531 41.03125 21.804688 40.664062 22.671875 39.84375 C 23.339844 39.210938 23.707031 38.277344 23.707031 37.175781 C 23.707031 36.078125 23.222656 35.144531 22.503906 34.574219 C 21.753906 33.972656 20.636719 33.675781 19.070312 33.675781 C 17.519531 33.675781 16.417969 33.773438 15.632812 33.910156 L 15.632812 45 L 18.152344 45 L 18.152344 40.980469 C 18.386719 41.015625 18.683594 41.03125 19.019531 41.03125 Z M 18.152344 35.691406 C 18.335938 35.640625 18.683594 35.59375 19.203125 35.59375 C 20.46875 35.59375 21.1875 36.210938 21.1875 37.242188 C 21.1875 38.394531 20.351562 39.078125 19.003906 39.078125 C 18.632812 39.078125 18.367188 39.0625 18.152344 39.011719 Z M 44.648438 35.84375 L 44.648438 33.757812 L 37.777344 33.757812 L 37.777344 45 L 40.328125 45 L 40.328125 40.480469 L 44.363281 40.480469 L 44.363281 38.410156 L 40.328125 38.410156 L 40.328125 35.84375 L 44.648438 35.84375 " fill-opacity="1" fill-rule="nonzero"/></svg>