<svg xmlns="http://www.w3.org/2000/svg" xmlns:xlink="http://www.w3.org/1999/xlink" width="1200" zoomAndPan="magnify" viewBox="0 0 900 209.999996" height="280" preserveAspectRatio="xMidYMid meet" version="1.0"><defs><g/></defs><rect x="-90" width="1080" fill="#ffffff" y="-21" height="251.999995" fill-opacity="1"/><rect x="-90" width="1080" fill="#ffffff" y="-21" height="251.999995" fill-opacity="1"/><g fill="#292929" fill-opacity="1"><g transform="translate(203.142419, 159.001454)"><g><path d="M 74.53125 -23.484375 L 33.359375 -23.484375 L 25.53125 0 L 0.546875 0 L 42.984375 -114 L 64.75 -114 L 107.421875 0 L 82.4375 0 Z M 39.6875 -42.515625 L 68.1875 -42.515625 L 53.859375 -85.1875 Z M 39.6875 -42.515625 "/></g></g></g><g fill="#292929" fill-opacity="1"><g transform="translate(309.108316, 159.001454)"><g><path d="M 74.53125 -23.484375 L 33.359375 -23.484375 L 25.53125 0 L 0.546875 0 L 42.984375 -114 L 64.75 -114 L 107.421875 0 L 82.4375 0 Z M 39.6875 -42.515625 L 68.1875 -42.515625 L 53.859375 -85.1875 Z M 39.6875 -42.515625 "/></g></g></g><g fill="#292929" fill-opacity="1"><g transform="translate(415.074213, 159.001454)"><g><path d="M 61.84375 -29.984375 C 61.84375 -34.265625 60.65625 -37.671875 58.28125 -40.203125 C 55.914062 -42.734375 51.882812 -45.066406 46.1875 -47.203125 C 40.5 -49.347656 35.59375 -51.476562 31.46875 -53.59375 C 27.34375 -55.707031 23.804688 -58.132812 20.859375 -60.875 C 17.910156 -63.613281 15.613281 -66.832031 13.96875 -70.53125 C 12.332031 -74.238281 11.515625 -78.648438 11.515625 -83.765625 C 11.515625 -92.585938 14.332031 -99.816406 19.96875 -105.453125 C 25.601562 -111.097656 33.09375 -114.390625 42.4375 -115.328125 L 42.4375 -132.078125 L 54.96875 -132.078125 L 54.96875 -115.09375 C 64.195312 -113.789062 71.421875 -109.941406 76.640625 -103.546875 C 81.867188 -97.148438 84.484375 -88.863281 84.484375 -78.6875 L 61.84375 -78.6875 C 61.84375 -84.945312 60.550781 -89.628906 57.96875 -92.734375 C 55.382812 -95.835938 51.929688 -97.390625 47.609375 -97.390625 C 43.328125 -97.390625 40.007812 -96.175781 37.65625 -93.75 C 35.3125 -91.320312 34.140625 -87.96875 34.140625 -83.6875 C 34.140625 -79.726562 35.285156 -76.546875 37.578125 -74.140625 C 39.878906 -71.742188 44.144531 -69.289062 50.375 -66.78125 C 56.613281 -64.28125 61.742188 -61.921875 65.765625 -59.703125 C 69.785156 -57.484375 73.175781 -54.976562 75.9375 -52.1875 C 78.707031 -49.394531 80.820312 -46.207031 82.28125 -42.625 C 83.75 -39.050781 84.484375 -34.890625 84.484375 -30.140625 C 84.484375 -21.265625 81.710938 -14.0625 76.171875 -8.53125 C 70.640625 -3 63.019531 0.257812 53.3125 1.25 L 53.3125 16.828125 L 40.875 16.828125 L 40.875 1.328125 C 30.164062 0.179688 21.875 -3.613281 16 -10.0625 C 10.132812 -16.507812 7.203125 -25.082031 7.203125 -35.78125 L 29.828125 -35.78125 C 29.828125 -29.570312 31.300781 -24.804688 34.25 -21.484375 C 37.195312 -18.171875 41.4375 -16.515625 46.96875 -16.515625 C 51.5625 -16.515625 55.1875 -17.726562 57.84375 -20.15625 C 60.507812 -22.582031 61.84375 -25.859375 61.84375 -29.984375 Z M 61.84375 -29.984375 "/></g></g></g><g fill="#292929" fill-opacity="1"><g transform="translate(505.146283, 159.001454)"><g><path d="M 74.53125 -23.484375 L 33.359375 -23.484375 L 25.53125 0 L 0.546875 0 L 42.984375 -114 L 64.75 -114 L 107.421875 0 L 82.4375 0 Z M 39.6875 -42.515625 L 68.1875 -42.515625 L 53.859375 -85.1875 Z M 39.6875 -42.515625 "/></g></g></g><g fill="#292929" fill-opacity="1"><g transform="translate(611.11218, 159.001454)"><g><path d="M 10.171875 0 L 10.171875 -114 L 50.109375 -114 C 63.941406 -114 74.429688 -111.347656 81.578125 -106.046875 C 88.734375 -100.742188 92.3125 -92.976562 92.3125 -82.75 C 92.3125 -77.164062 90.875 -72.242188 88 -67.984375 C 85.125 -63.734375 81.128906 -60.617188 76.015625 -58.640625 C 81.867188 -57.179688 86.476562 -54.234375 89.84375 -49.796875 C 93.207031 -45.359375 94.890625 -39.929688 94.890625 -33.515625 C 94.890625 -22.546875 91.390625 -14.242188 84.390625 -8.609375 C 77.398438 -2.972656 67.429688 -0.101562 54.484375 0 Z M 33.671875 -49.640625 L 33.671875 -18.875 L 53.78125 -18.875 C 59.320312 -18.875 63.644531 -20.191406 66.75 -22.828125 C 69.851562 -25.460938 71.40625 -29.101562 71.40625 -33.75 C 71.40625 -44.1875 66.003906 -49.484375 55.203125 -49.640625 Z M 33.671875 -66.234375 L 51.046875 -66.234375 C 62.890625 -66.441406 68.8125 -71.164062 68.8125 -80.40625 C 68.8125 -85.570312 67.3125 -89.289062 64.3125 -91.5625 C 61.3125 -93.832031 56.578125 -94.96875 50.109375 -94.96875 L 33.671875 -94.96875 Z M 33.671875 -66.234375 "/></g></g></g><g fill="#292929" fill-opacity="1"><g transform="translate(711.519157, 159.001454)"><g><path d="M 33.671875 -18.875 L 83.53125 -18.875 L 83.53125 0 L 10.171875 0 L 10.171875 -114 L 33.671875 -114 Z M 33.671875 -18.875 "/></g></g></g><g fill="#292929" fill-opacity="1"><g transform="translate(796.423784, 159.001454)"><g><path d="M 78.765625 -49.40625 L 33.671875 -49.40625 L 33.671875 -18.875 L 86.59375 -18.875 L 86.59375 0 L 10.171875 0 L 10.171875 -114 L 86.4375 -114 L 86.4375 -94.96875 L 33.671875 -94.96875 L 33.671875 -67.796875 L 78.765625 -67.796875 Z M 78.765625 -49.40625 "/></g></g></g><path fill="#2e75a9" d="M 222.394531 63.765625 C 210.257812 1.339844 134.1875 0.296875 115.429688 58.652344 C 96.675781 0.300781 20.601562 1.339844 8.46875 63.765625 C -2.542969 120.402344 115.429688 209.753906 115.429688 209.753906 C 115.429688 209.753906 233.402344 120.402344 222.394531 63.765625 Z M 222.394531 63.765625 " fill-opacity="1" fill-rule="nonzero"/><g fill="#ffffff" fill-opacity="1"><g transform="translate(68.52062, 159.12588)"><g><path d="M 61.71875 -29.921875 C 61.71875 -34.191406 60.53125 -37.585938 58.15625 -40.109375 C 55.789062 -42.640625 51.769531 -44.972656 46.09375 -47.109375 C 40.414062 -49.242188 35.519531 -51.363281 31.40625 -53.46875 C 27.289062 -55.582031 23.757812 -58.003906 20.8125 -60.734375 C 17.875 -63.472656 15.582031 -66.691406 13.9375 -70.390625 C 12.300781 -74.085938 11.484375 -78.488281 11.484375 -83.59375 C 11.484375 -92.394531 14.296875 -99.609375 19.921875 -105.234375 C 25.546875 -110.859375 33.019531 -114.140625 42.34375 -115.078125 L 42.34375 -131.796875 L 54.84375 -131.796875 L 54.84375 -114.84375 C 64.0625 -113.539062 71.273438 -109.695312 76.484375 -103.3125 C 81.691406 -96.9375 84.296875 -88.671875 84.296875 -78.515625 L 61.71875 -78.515625 C 61.71875 -84.765625 60.425781 -89.4375 57.84375 -92.53125 C 55.269531 -95.632812 51.820312 -97.1875 47.5 -97.1875 C 43.226562 -97.1875 39.921875 -95.972656 37.578125 -93.546875 C 35.234375 -91.128906 34.0625 -87.785156 34.0625 -83.515625 C 34.0625 -79.554688 35.207031 -76.378906 37.5 -73.984375 C 39.789062 -71.585938 44.046875 -69.140625 50.265625 -66.640625 C 56.492188 -64.140625 61.613281 -61.78125 65.625 -59.5625 C 69.632812 -57.351562 73.019531 -54.851562 75.78125 -52.0625 C 78.539062 -49.28125 80.648438 -46.101562 82.109375 -42.53125 C 83.566406 -38.96875 84.296875 -34.816406 84.296875 -30.078125 C 84.296875 -21.222656 81.535156 -14.035156 76.015625 -8.515625 C 70.492188 -2.992188 62.890625 0.257812 53.203125 1.25 L 53.203125 16.796875 L 40.78125 16.796875 L 40.78125 1.328125 C 30.101562 0.179688 21.832031 -3.601562 15.96875 -10.03125 C 10.113281 -16.46875 7.1875 -25.023438 7.1875 -35.703125 L 29.765625 -35.703125 C 29.765625 -29.503906 31.234375 -24.75 34.171875 -21.4375 C 37.117188 -18.132812 41.351562 -16.484375 46.875 -16.484375 C 51.457031 -16.484375 55.078125 -17.691406 57.734375 -20.109375 C 60.390625 -22.535156 61.71875 -25.804688 61.71875 -29.921875 Z M 61.71875 -29.921875 "/></g></g></g></svg>