<svg xmlns="http://www.w3.org/2000/svg" xmlns:xlink="http://www.w3.org/1999/xlink" width="80" zoomAndPan="magnify" viewBox="0 0 60 60" height="80" preserveAspectRatio="xMidYMid meet" version="1.0"><defs><g/><clipPath id="b2a596e2d3"><path d="M 2 7 L 58 7 L 58 56.550781 L 2 56.550781 Z M 2 7 " clip-rule="nonzero"/></clipPath></defs><g clip-path="url(#b2a596e2d3)"><path fill="#00a884" d="M 57.214844 19.507812 C 54.128906 3.636719 34.785156 3.371094 30.015625 18.210938 C 25.242188 3.371094 5.898438 3.636719 2.8125 19.507812 C 0.0117188 33.910156 30.015625 56.632812 30.015625 56.632812 C 30.015625 56.632812 60.015625 33.910156 57.214844 19.507812 Z M 57.214844 19.507812 " fill-opacity="1" fill-rule="nonzero"/></g><g fill="#ffffff" fill-opacity="1"><g transform="translate(18.083814, 43.763441)"><g><path d="M 15.6875 -7.609375 C 15.6875 -8.691406 15.382812 -9.554688 14.78125 -10.203125 C 14.1875 -10.847656 13.164062 -11.441406 11.71875 -11.984375 C 10.28125 -12.523438 9.035156 -13.0625 7.984375 -13.59375 C 6.941406 -14.132812 6.046875 -14.75 5.296875 -15.4375 C 4.546875 -16.132812 3.960938 -16.953125 3.546875 -17.890625 C 3.128906 -18.835938 2.921875 -19.957031 2.921875 -21.25 C 2.921875 -23.488281 3.632812 -25.320312 5.0625 -26.75 C 6.5 -28.1875 8.398438 -29.023438 10.765625 -29.265625 L 10.765625 -33.515625 L 13.953125 -33.515625 L 13.953125 -29.203125 C 16.296875 -28.867188 18.128906 -27.890625 19.453125 -26.265625 C 20.773438 -24.648438 21.4375 -22.550781 21.4375 -19.96875 L 15.6875 -19.96875 C 15.6875 -21.550781 15.359375 -22.738281 14.703125 -23.53125 C 14.054688 -24.320312 13.179688 -24.71875 12.078125 -24.71875 C 10.992188 -24.71875 10.148438 -24.40625 9.546875 -23.78125 C 8.953125 -23.164062 8.65625 -22.316406 8.65625 -21.234375 C 8.65625 -20.234375 8.945312 -19.425781 9.53125 -18.8125 C 10.113281 -18.207031 11.195312 -17.585938 12.78125 -16.953125 C 14.363281 -16.316406 15.664062 -15.710938 16.6875 -15.140625 C 17.707031 -14.578125 18.566406 -13.941406 19.265625 -13.234375 C 19.972656 -12.523438 20.507812 -11.71875 20.875 -10.8125 C 21.25 -9.90625 21.4375 -8.851562 21.4375 -7.65625 C 21.4375 -5.394531 20.734375 -3.5625 19.328125 -2.15625 C 17.921875 -0.757812 15.988281 0.0625 13.53125 0.3125 L 13.53125 4.265625 L 10.375 4.265625 L 10.375 0.34375 C 7.65625 0.0507812 5.550781 -0.910156 4.0625 -2.546875 C 2.570312 -4.179688 1.828125 -6.359375 1.828125 -9.078125 L 7.5625 -9.078125 C 7.5625 -7.503906 7.9375 -6.296875 8.6875 -5.453125 C 9.4375 -4.609375 10.515625 -4.1875 11.921875 -4.1875 C 13.085938 -4.1875 14.003906 -4.492188 14.671875 -5.109375 C 15.347656 -5.734375 15.6875 -6.566406 15.6875 -7.609375 Z M 15.6875 -7.609375 "/></g></g></g></svg>